<mxfile host="app.diagrams.net" agent="Mozilla/5.0 (X11; Linux x86_64) AppleWebKit/537.36 (KHTML, like Gecko) Chrome/132.0.0.0 Safari/537.36" version="26.0.9">
  <diagram name="Pagina-1" id="7bPjR7rLzMSQHOql1Z0M">
    <mxGraphModel dx="1604" dy="793" grid="1" gridSize="10" guides="1" tooltips="1" connect="1" arrows="1" fold="1" page="1" pageScale="1" pageWidth="827" pageHeight="1169" math="0" shadow="0">
      <root>
        <mxCell id="0" />
        <mxCell id="1" parent="0" />
        <mxCell id="JxwubEkZ6hUArYdezvPQ-23" style="edgeStyle=orthogonalEdgeStyle;rounded=0;orthogonalLoop=1;jettySize=auto;html=1;entryX=0.5;entryY=0;entryDx=0;entryDy=0;" edge="1" parent="1" source="JxwubEkZ6hUArYdezvPQ-1" target="JxwubEkZ6hUArYdezvPQ-22">
          <mxGeometry relative="1" as="geometry" />
        </mxCell>
        <mxCell id="JxwubEkZ6hUArYdezvPQ-1" value="start" style="ellipse;whiteSpace=wrap;html=1;" vertex="1" parent="1">
          <mxGeometry x="354" y="40" width="120" height="80" as="geometry" />
        </mxCell>
        <mxCell id="JxwubEkZ6hUArYdezvPQ-13" value="" style="edgeStyle=orthogonalEdgeStyle;rounded=0;orthogonalLoop=1;jettySize=auto;html=1;" edge="1" parent="1" source="JxwubEkZ6hUArYdezvPQ-8" target="JxwubEkZ6hUArYdezvPQ-12">
          <mxGeometry relative="1" as="geometry">
            <Array as="points">
              <mxPoint x="414" y="350" />
              <mxPoint x="414" y="350" />
            </Array>
          </mxGeometry>
        </mxCell>
        <mxCell id="JxwubEkZ6hUArYdezvPQ-8" value="write&lt;br&gt;&quot;Vuoi inserire un voto?&quot;" style="shape=parallelogram;perimeter=parallelogramPerimeter;whiteSpace=wrap;html=1;fixedSize=1;" vertex="1" parent="1">
          <mxGeometry x="339" y="260" width="150" height="60" as="geometry" />
        </mxCell>
        <mxCell id="JxwubEkZ6hUArYdezvPQ-15" value="" style="edgeStyle=orthogonalEdgeStyle;rounded=0;orthogonalLoop=1;jettySize=auto;html=1;" edge="1" parent="1" source="JxwubEkZ6hUArYdezvPQ-12" target="JxwubEkZ6hUArYdezvPQ-14">
          <mxGeometry relative="1" as="geometry" />
        </mxCell>
        <mxCell id="JxwubEkZ6hUArYdezvPQ-12" value="read opzione" style="shape=parallelogram;perimeter=parallelogramPerimeter;whiteSpace=wrap;html=1;fixedSize=1;" vertex="1" parent="1">
          <mxGeometry x="355" y="360" width="120" height="60" as="geometry" />
        </mxCell>
        <mxCell id="JxwubEkZ6hUArYdezvPQ-17" value="" style="edgeStyle=orthogonalEdgeStyle;rounded=0;orthogonalLoop=1;jettySize=auto;html=1;" edge="1" parent="1" source="JxwubEkZ6hUArYdezvPQ-14" target="JxwubEkZ6hUArYdezvPQ-16">
          <mxGeometry relative="1" as="geometry" />
        </mxCell>
        <mxCell id="JxwubEkZ6hUArYdezvPQ-18" value="true" style="edgeLabel;html=1;align=center;verticalAlign=middle;resizable=0;points=[];" vertex="1" connectable="0" parent="JxwubEkZ6hUArYdezvPQ-17">
          <mxGeometry x="-0.0742" y="-3" relative="1" as="geometry">
            <mxPoint as="offset" />
          </mxGeometry>
        </mxCell>
        <mxCell id="JxwubEkZ6hUArYdezvPQ-26" value="" style="edgeStyle=orthogonalEdgeStyle;rounded=0;orthogonalLoop=1;jettySize=auto;html=1;" edge="1" parent="1" source="JxwubEkZ6hUArYdezvPQ-14" target="JxwubEkZ6hUArYdezvPQ-25">
          <mxGeometry relative="1" as="geometry" />
        </mxCell>
        <mxCell id="JxwubEkZ6hUArYdezvPQ-29" value="false" style="edgeLabel;html=1;align=center;verticalAlign=middle;resizable=0;points=[];" vertex="1" connectable="0" parent="JxwubEkZ6hUArYdezvPQ-26">
          <mxGeometry x="-0.1804" y="-2" relative="1" as="geometry">
            <mxPoint as="offset" />
          </mxGeometry>
        </mxCell>
        <mxCell id="JxwubEkZ6hUArYdezvPQ-14" value="opzione == &quot;si&quot;" style="rhombus;whiteSpace=wrap;html=1;" vertex="1" parent="1">
          <mxGeometry x="360" y="460" width="110" height="80" as="geometry" />
        </mxCell>
        <mxCell id="JxwubEkZ6hUArYdezvPQ-20" value="" style="edgeStyle=orthogonalEdgeStyle;rounded=0;orthogonalLoop=1;jettySize=auto;html=1;" edge="1" parent="1" source="JxwubEkZ6hUArYdezvPQ-16" target="JxwubEkZ6hUArYdezvPQ-19">
          <mxGeometry relative="1" as="geometry" />
        </mxCell>
        <mxCell id="JxwubEkZ6hUArYdezvPQ-16" value="read voto" style="shape=parallelogram;perimeter=parallelogramPerimeter;whiteSpace=wrap;html=1;fixedSize=1;" vertex="1" parent="1">
          <mxGeometry x="554" y="470" width="120" height="60" as="geometry" />
        </mxCell>
        <mxCell id="JxwubEkZ6hUArYdezvPQ-31" value="" style="edgeStyle=orthogonalEdgeStyle;rounded=0;orthogonalLoop=1;jettySize=auto;html=1;" edge="1" parent="1" source="JxwubEkZ6hUArYdezvPQ-19" target="JxwubEkZ6hUArYdezvPQ-30">
          <mxGeometry relative="1" as="geometry" />
        </mxCell>
        <mxCell id="JxwubEkZ6hUArYdezvPQ-32" value="true" style="edgeLabel;html=1;align=center;verticalAlign=middle;resizable=0;points=[];" vertex="1" connectable="0" parent="JxwubEkZ6hUArYdezvPQ-31">
          <mxGeometry x="-0.0448" y="-1" relative="1" as="geometry">
            <mxPoint as="offset" />
          </mxGeometry>
        </mxCell>
        <mxCell id="JxwubEkZ6hUArYdezvPQ-33" style="edgeStyle=orthogonalEdgeStyle;rounded=0;orthogonalLoop=1;jettySize=auto;html=1;entryX=0;entryY=0.5;entryDx=0;entryDy=0;" edge="1" parent="1" source="JxwubEkZ6hUArYdezvPQ-19" target="JxwubEkZ6hUArYdezvPQ-16">
          <mxGeometry relative="1" as="geometry">
            <Array as="points">
              <mxPoint x="534" y="640" />
              <mxPoint x="534" y="500" />
            </Array>
          </mxGeometry>
        </mxCell>
        <mxCell id="JxwubEkZ6hUArYdezvPQ-34" value="false" style="edgeLabel;html=1;align=center;verticalAlign=middle;resizable=0;points=[];" vertex="1" connectable="0" parent="JxwubEkZ6hUArYdezvPQ-33">
          <mxGeometry x="0.0258" relative="1" as="geometry">
            <mxPoint as="offset" />
          </mxGeometry>
        </mxCell>
        <mxCell id="JxwubEkZ6hUArYdezvPQ-19" value="voto &amp;gt; 0" style="rhombus;whiteSpace=wrap;html=1;" vertex="1" parent="1">
          <mxGeometry x="574" y="600" width="80" height="80" as="geometry" />
        </mxCell>
        <mxCell id="JxwubEkZ6hUArYdezvPQ-24" style="edgeStyle=orthogonalEdgeStyle;rounded=0;orthogonalLoop=1;jettySize=auto;html=1;" edge="1" parent="1" source="JxwubEkZ6hUArYdezvPQ-22" target="JxwubEkZ6hUArYdezvPQ-8">
          <mxGeometry relative="1" as="geometry" />
        </mxCell>
        <mxCell id="JxwubEkZ6hUArYdezvPQ-37" value="" style="edgeStyle=orthogonalEdgeStyle;rounded=0;orthogonalLoop=1;jettySize=auto;html=1;" edge="1" parent="1" source="JxwubEkZ6hUArYdezvPQ-22" target="JxwubEkZ6hUArYdezvPQ-8">
          <mxGeometry relative="1" as="geometry" />
        </mxCell>
        <mxCell id="JxwubEkZ6hUArYdezvPQ-22" value="voto = 0&lt;br&gt;opzione = &quot;&quot;&lt;div&gt;n_voti = 0&lt;/div&gt;&lt;div&gt;media = 0&lt;/div&gt;&lt;div&gt;somma = 0&lt;/div&gt;" style="rounded=0;whiteSpace=wrap;html=1;" vertex="1" parent="1">
          <mxGeometry x="355" y="150" width="120" height="80" as="geometry" />
        </mxCell>
        <mxCell id="JxwubEkZ6hUArYdezvPQ-27" style="edgeStyle=orthogonalEdgeStyle;rounded=0;orthogonalLoop=1;jettySize=auto;html=1;" edge="1" parent="1" source="JxwubEkZ6hUArYdezvPQ-25" target="JxwubEkZ6hUArYdezvPQ-12">
          <mxGeometry relative="1" as="geometry">
            <Array as="points">
              <mxPoint x="207" y="390" />
            </Array>
          </mxGeometry>
        </mxCell>
        <mxCell id="JxwubEkZ6hUArYdezvPQ-28" value="false" style="edgeLabel;html=1;align=center;verticalAlign=middle;resizable=0;points=[];" vertex="1" connectable="0" parent="JxwubEkZ6hUArYdezvPQ-27">
          <mxGeometry x="-0.6838" relative="1" as="geometry">
            <mxPoint as="offset" />
          </mxGeometry>
        </mxCell>
        <mxCell id="JxwubEkZ6hUArYdezvPQ-48" value="" style="edgeStyle=orthogonalEdgeStyle;rounded=0;orthogonalLoop=1;jettySize=auto;html=1;entryX=0.5;entryY=0;entryDx=0;entryDy=0;" edge="1" parent="1" source="JxwubEkZ6hUArYdezvPQ-25" target="JxwubEkZ6hUArYdezvPQ-38">
          <mxGeometry relative="1" as="geometry" />
        </mxCell>
        <mxCell id="JxwubEkZ6hUArYdezvPQ-50" value="true" style="edgeLabel;html=1;align=center;verticalAlign=middle;resizable=0;points=[];" vertex="1" connectable="0" parent="JxwubEkZ6hUArYdezvPQ-48">
          <mxGeometry x="-0.0286" y="-2" relative="1" as="geometry">
            <mxPoint as="offset" />
          </mxGeometry>
        </mxCell>
        <mxCell id="JxwubEkZ6hUArYdezvPQ-25" value="opzione == &quot;no&quot;" style="rhombus;whiteSpace=wrap;html=1;" vertex="1" parent="1">
          <mxGeometry x="150" y="460" width="115" height="80" as="geometry" />
        </mxCell>
        <mxCell id="JxwubEkZ6hUArYdezvPQ-36" value="" style="edgeStyle=orthogonalEdgeStyle;rounded=0;orthogonalLoop=1;jettySize=auto;html=1;" edge="1" parent="1" source="JxwubEkZ6hUArYdezvPQ-30" target="JxwubEkZ6hUArYdezvPQ-35">
          <mxGeometry relative="1" as="geometry" />
        </mxCell>
        <mxCell id="JxwubEkZ6hUArYdezvPQ-30" value="n_voti = n_voti + 1" style="whiteSpace=wrap;html=1;" vertex="1" parent="1">
          <mxGeometry x="734" y="610" width="120" height="60" as="geometry" />
        </mxCell>
        <mxCell id="JxwubEkZ6hUArYdezvPQ-35" value="somma = somma + voto" style="whiteSpace=wrap;html=1;" vertex="1" parent="1">
          <mxGeometry x="714" y="360" width="160" height="60" as="geometry" />
        </mxCell>
        <mxCell id="JxwubEkZ6hUArYdezvPQ-41" value="" style="edgeStyle=orthogonalEdgeStyle;rounded=0;orthogonalLoop=1;jettySize=auto;html=1;entryX=1;entryY=0.5;entryDx=0;entryDy=0;exitX=0;exitY=0.5;exitDx=0;exitDy=0;" edge="1" parent="1" source="JxwubEkZ6hUArYdezvPQ-35" target="JxwubEkZ6hUArYdezvPQ-12">
          <mxGeometry relative="1" as="geometry">
            <mxPoint x="450" y="780" as="targetPoint" />
            <Array as="points" />
          </mxGeometry>
        </mxCell>
        <mxCell id="JxwubEkZ6hUArYdezvPQ-51" style="edgeStyle=orthogonalEdgeStyle;rounded=0;orthogonalLoop=1;jettySize=auto;html=1;entryX=0.5;entryY=0;entryDx=0;entryDy=0;" edge="1" parent="1" source="JxwubEkZ6hUArYdezvPQ-38" target="JxwubEkZ6hUArYdezvPQ-47">
          <mxGeometry relative="1" as="geometry" />
        </mxCell>
        <mxCell id="JxwubEkZ6hUArYdezvPQ-38" value="media = somma / n_voti" style="whiteSpace=wrap;html=1;" vertex="1" parent="1">
          <mxGeometry x="147.5" y="600" width="120" height="60" as="geometry" />
        </mxCell>
        <mxCell id="JxwubEkZ6hUArYdezvPQ-42" value="end" style="ellipse;whiteSpace=wrap;html=1;" vertex="1" parent="1">
          <mxGeometry x="167.5" y="800" width="80" height="80" as="geometry" />
        </mxCell>
        <mxCell id="JxwubEkZ6hUArYdezvPQ-49" style="edgeStyle=orthogonalEdgeStyle;rounded=0;orthogonalLoop=1;jettySize=auto;html=1;" edge="1" parent="1" source="JxwubEkZ6hUArYdezvPQ-47" target="JxwubEkZ6hUArYdezvPQ-42">
          <mxGeometry relative="1" as="geometry" />
        </mxCell>
        <mxCell id="JxwubEkZ6hUArYdezvPQ-47" value="write media" style="whiteSpace=wrap;html=1;" vertex="1" parent="1">
          <mxGeometry x="147.5" y="710" width="120" height="60" as="geometry" />
        </mxCell>
      </root>
    </mxGraphModel>
  </diagram>
</mxfile>
